<?xml version="1.0" standalone="no"?>
<!DOCTYPE svg PUBLIC "-//W3C//DTD SVG 20010904//EN"
 "http://www.w3.org/TR/2001/REC-SVG-20010904/DTD/svg10.dtd">
<svg version="1.0" xmlns="http://www.w3.org/2000/svg"
 width="280.000000pt" height="280.000000pt" viewBox="0 0 280.000000 280.000000"
 preserveAspectRatio="xMidYMid meet">
<metadata>
Created by potrace 1.11, written by Peter Selinger 2001-2013
</metadata>
<g transform="translate(0.000000,280.000000) scale(0.100000,-0.100000)"
fill="#000000" stroke="none">
<path d="M1933 2706 c-23 -24 -39 -47 -35 -51 3 -3 -1 -3 -11 1 -20 7 -22 -6
-4 -26 10 -12 9 -12 -3 -3 -11 9 -20 7 -37 -7 -13 -10 -23 -23 -23 -30 0 -6
-4 -9 -9 -6 -11 7 -45 -30 -37 -42 3 -5 -2 -9 -11 -8 -9 0 -23 -10 -30 -24 -7
-14 -13 -18 -13 -10 0 13 -2 13 -9 0 -6 -8 -7 -18 -4 -24 3 -5 1 -6 -5 -2 -7
4 -33 -14 -62 -42 -27 -27 -52 -47 -54 -45 -2 3 -7 -4 -10 -15 -4 -11 -16 -22
-27 -25 -11 -3 -18 -9 -17 -14 2 -4 0 -9 -4 -10 -19 -7 -48 -45 -42 -55 5 -7
3 -8 -5 -3 -14 8 -73 -43 -65 -57 3 -5 0 -7 -8 -6 -7 2 -12 -2 -11 -9 2 -7 -3
-10 -11 -7 -15 6 -29 -22 -20 -39 5 -9 3 -9 -6 0 -10 9 -16 9 -26 -2 -19 -18
-17 -25 4 -19 14 5 14 4 2 -4 -8 -6 -18 -8 -23 -5 -5 3 -16 -3 -26 -13 -10
-11 -48 -46 -85 -78 -42 -37 -65 -64 -62 -73 3 -8 1 -11 -5 -8 -12 8 -41 -14
-33 -26 3 -5 -2 -9 -10 -9 -8 0 -22 -10 -31 -22 -8 -13 -18 -22 -22 -20 -4 2
-10 -5 -14 -15 -4 -10 -8 -14 -8 -9 -1 5 -10 -1 -21 -14 -11 -12 -17 -27 -13
-33 4 -6 1 -7 -6 -3 -15 10 -53 -23 -44 -37 3 -5 2 -7 -4 -4 -11 7 -53 -28
-53 -44 0 -6 -4 -8 -9 -4 -16 10 -23 -15 -9 -33 11 -15 11 -16 -3 -5 -13 11
-22 8 -52 -18 -33 -28 -37 -36 -37 -81 0 -27 3 -47 8 -44 4 2 16 -2 27 -10 10
-8 14 -14 9 -14 -6 0 -15 5 -21 11 -7 7 -13 7 -17 1 -8 -14 -10 -138 -2 -150
3 -6 0 -12 -6 -15 -10 -3 -10 -7 1 -20 9 -12 10 -17 2 -17 -8 0 -9 -5 -1 -19
7 -14 6 -21 -3 -24 -9 -3 -9 -7 2 -20 8 -10 9 -17 3 -17 -7 0 -8 -10 -2 -30 6
-21 5 -30 -3 -31 -7 0 -3 -4 8 -9 15 -6 16 -9 4 -9 -13 -1 -14 -10 -9 -51 4
-27 4 -50 1 -50 -10 0 -6 -95 4 -102 7 -5 7 -8 0 -8 -15 0 -12 -49 4 -55 9 -3
11 0 7 10 -9 26 3 17 18 -13 12 -23 12 -29 1 -29 -7 0 -11 5 -9 12 3 6 -3 11
-13 12 -13 1 -18 -6 -18 -25 -1 -15 4 -30 10 -34 7 -5 7 -8 -1 -8 -12 0 -11
-60 1 -80 5 -8 4 -11 -1 -7 -6 3 -10 -9 -10 -29 0 -19 5 -34 11 -34 6 0 6 -3
-1 -8 -14 -9 -13 -144 1 -154 7 -5 6 -8 -1 -8 -12 0 -11 -60 1 -80 5 -8 4 -11
-2 -7 -13 8 -11 -56 2 -65 7 -5 7 -8 0 -8 -5 0 -11 -28 -12 -63 -1 -45 1 -57
8 -44 6 9 18 17 27 17 15 0 15 2 2 10 -13 8 -12 10 3 10 18 0 20 -14 18 -153
l0 -59 42 39 c23 21 41 43 41 50 -1 7 2 10 8 7 13 -8 39 16 31 29 -4 6 -1 7 6
2 18 -11 75 50 67 72 -5 16 -5 16 7 2 9 -12 15 -13 23 -5 7 6 39 35 72 65 37
34 58 59 53 65 -14 18 -20 45 -13 50 4 3 9 -5 9 -16 3 -33 19 -43 38 -24 9 9
14 20 10 26 -3 5 0 7 8 4 8 -3 36 16 65 44 28 27 55 46 58 43 4 -3 4 2 1 11
-4 11 -2 15 6 13 7 -3 24 6 40 20 27 24 37 42 15 29 -7 -4 -8 -3 -4 5 4 6 11
9 16 6 12 -7 72 50 63 59 -4 4 -1 5 7 2 16 -6 113 78 103 88 -4 3 -1 6 6 6 18
0 62 36 54 44 -3 3 1 6 10 6 21 0 49 29 41 42 -5 7 -2 8 5 4 15 -10 53 23 44
38 -3 6 -3 8 2 4 12 -11 67 32 61 48 -3 9 0 11 11 7 11 -4 14 -2 9 5 -4 7 -1
12 9 12 9 0 31 13 48 30 74 68 122 110 130 110 11 0 8 209 -3 230 -8 16 -7 18
4 14 12 -5 14 0 6 25 -6 22 -5 31 3 32 7 0 3 4 -8 9 -16 7 -17 9 -3 9 14 1 15
6 8 31 -6 21 -5 30 3 31 7 0 3 4 -8 9 -16 7 -17 9 -3 9 14 1 15 6 8 31 -6 21
-5 30 3 31 7 0 3 4 -8 9 -16 7 -17 9 -3 9 14 1 15 6 8 31 -6 21 -5 30 3 31 7
0 3 4 -8 9 -18 8 -18 9 -2 9 14 1 16 5 7 20 -7 14 -6 21 3 24 9 3 9 7 -2 20
-7 10 -9 17 -4 17 5 0 7 21 3 50 -4 28 -3 50 1 50 10 0 6 34 -6 42 -5 4 -13 4
-18 1 -5 -3 -3 -10 4 -15 11 -8 11 -9 1 -6 -8 2 -13 7 -12 12 1 5 -4 13 -12
18 -10 8 -10 9 2 5 30 -9 45 16 47 76 0 37 -3 57 -10 57 -7 0 -6 4 2 9 12 8
12 12 -2 26 -20 20 -21 29 -4 47 16 17 19 78 3 78 -6 0 -4 5 4 10 13 9 13 11
0 20 -10 6 -11 10 -2 10 6 0 12 9 12 21 0 11 -5 17 -10 14 -6 -4 -8 -11 -5
-16 4 -5 1 -9 -4 -9 -15 0 -14 16 2 32 6 7 12 32 12 56 0 41 -8 55 -18 30 -3
-7 -4 -3 -4 8 1 12 6 20 12 18 14 -6 14 78 0 88 -7 5 -7 8 0 8 6 0 11 24 11
54 l1 55 -23 -16 c-13 -8 -24 -19 -24 -24 0 -5 -3 -9 -7 -9 -9 0 -10 160 -1
175 3 6 3 18 -1 28 -5 14 -13 10 -48 -27z m37 14 c0 -5 -5 -10 -11 -10 -5 0
-7 5 -4 10 3 6 8 10 11 10 2 0 4 -4 4 -10z m-23 -44 c0 -8 -6 -12 -15 -9 -11
5 -11 7 0 14 7 5 13 9 14 9 0 0 1 -6 1 -14z m5 -58 c-8 -8 -9 -4 -5 13 4 13 8
18 11 10 2 -7 -1 -18 -6 -23z m-98 -16 c3 -5 -1 -9 -9 -9 -8 0 -12 4 -9 9 3 4
7 8 9 8 2 0 6 -4 9 -8z m76 -2 c0 -4 -7 -7 -15 -6 -23 3 -26 12 -5 13 11 1 20
-2 20 -7z m32 -32 c-2 -10 -6 -18 -7 -18 -1 0 -5 8 -7 18 -3 11 0 19 7 19 7 0
10 -8 7 -19z m-72 -8 c0 -5 -2 -10 -4 -10 -3 0 -8 5 -11 10 -3 6 -1 10 4 10 6
0 11 -4 11 -10z m-42 -25 c-3 -3 -9 2 -12 12 -6 14 -5 15 5 6 7 -7 10 -15 7
-18z m76 3 c-5 -7 -2 -9 8 -6 8 4 15 0 15 -7 0 -10 -5 -11 -19 -4 -16 9 -17
29 -2 29 3 0 2 -5 -2 -12z m-100 -12 c-3 -9 -12 -12 -22 -9 -15 6 -9 11 25 22
1 1 0 -5 -3 -13z m193 0 c-10 -8 -17 -16 -15 -19 2 -3 0 -8 -4 -12 -3 -4 -5 1
-4 10 1 9 9 21 17 26 22 14 26 10 6 -5z m-242 -24 c-3 -3 -11 0 -18 7 -9 10
-8 11 6 5 10 -3 15 -9 12 -12z m-8 -32 c1 -11 -2 -20 -7 -20 -6 0 -7 17 -1 38
3 8 7 -1 8 -18z m-18 -43 c0 -9 -2 -9 -5 0 -3 7 -13 9 -22 6 -14 -4 -14 -3 -2
5 16 12 30 7 29 -11z m101 3 c-6 -11 -13 -20 -16 -20 -2 0 0 9 6 20 6 11 13
20 16 20 2 0 0 -9 -6 -20z m-167 -3 c3 -8 -1 -14 -8 -14 -7 0 -11 6 -8 14 3 7
6 13 8 13 2 0 5 -6 8 -13z m332 -7 c3 -6 -1 -7 -9 -4 -18 7 -21 14 -7 14 6 0
13 -4 16 -10z m-375 -20 c-8 -5 -19 -10 -25 -10 -5 0 -3 5 5 10 8 5 20 10 25
10 6 0 3 -5 -5 -10z m130 -4 c-7 -7 -13 -7 -20 0 -6 6 -3 10 10 10 13 0 16 -4
10 -10z m-77 -10 c4 -10 1 -13 -8 -9 -8 3 -12 9 -9 14 7 12 11 11 17 -5z m51
-19 c-3 -8 -11 -14 -19 -14 -21 0 -19 15 3 20 9 3 18 5 19 6 1 0 0 -5 -3 -12z
m-51 -32 c-3 -9 -8 -14 -10 -11 -3 3 -2 9 2 15 9 16 15 13 8 -4z m-102 -37
c-10 -11 -11 -9 -5 6 6 15 4 17 -6 11 -9 -6 -11 -4 -5 4 5 9 10 10 18 2 8 -8
7 -14 -2 -23z m76 18 c0 -8 -6 -12 -15 -8 -11 4 -13 1 -7 -8 6 -9 4 -11 -5 -5
-10 6 -9 11 5 22 23 16 22 16 22 -1z m34 -9 c-10 -9 -11 -8 -5 6 3 10 9 15 12
12 3 -3 0 -11 -7 -18z m319 17 c0 -8 -19 -13 -24 -6 -3 5 1 9 9 9 8 0 15 -2
15 -3z m-299 -27 c-10 -9 -11 -8 -5 6 3 10 9 15 12 12 3 -3 0 -11 -7 -18z
m-151 -12 c0 -11 -29 -11 -33 -1 -4 10 1 12 14 9 10 -3 19 -7 19 -8z m442 8
c-6 -2 -10 -9 -7 -13 3 -5 0 -12 -6 -16 -8 -4 -9 -3 -5 4 4 7 1 12 -6 12 -9 0
-9 3 2 10 8 5 20 9 25 9 6 0 4 -3 -3 -6z m-322 -7 c0 -3 -4 -8 -10 -11 -5 -3
-10 -1 -10 4 0 6 5 11 10 11 6 0 10 -2 10 -4z m-83 -22 c-3 -3 -12 -4 -19 -1
-8 3 -5 6 6 6 11 1 17 -2 13 -5z m53 -4 c18 -12 2 -12 -25 0 -13 6 -15 9 -5 9
8 0 22 -4 30 -9z m-140 -15 c5 3 12 0 16 -7 4 -7 4 -10 -1 -6 -4 4 -16 3 -25
-2 -15 -8 -17 -6 -12 12 3 13 7 17 10 10 2 -7 8 -10 12 -7z m-55 -15 c3 -6 -1
-7 -9 -4 -18 7 -21 14 -7 14 6 0 13 -4 16 -10z m105 -7 c0 -5 -5 -15 -10 -23
-7 -12 -9 -10 -7 8 1 19 17 33 17 15z m-77 -32 c3 -13 0 -18 -7 -15 -7 3 -13
11 -13 19 0 22 14 18 20 -4z m508 -8 c-12 -20 -14 -14 -5 12 4 9 9 14 11 11 3
-2 0 -13 -6 -23z m-396 8 c3 -5 2 -12 -3 -15 -5 -3 -9 1 -9 9 0 17 3 19 12 6z
m-175 -31 c0 -5 -4 -10 -10 -10 -5 0 -10 5 -10 10 0 6 5 10 10 10 6 0 10 -4
10 -10z m40 -2 c0 -4 -4 -8 -9 -8 -6 0 -12 4 -15 8 -3 5 1 9 9 9 8 0 15 -4 15
-9z m551 3 c-8 -5 -10 -14 -6 -22 6 -11 5 -11 -5 -2 -14 12 -6 33 13 33 8 0 7
-3 -2 -9z m-488 -28 c-3 -7 -6 -13 -8 -13 -2 0 -5 6 -8 13 -3 8 1 14 8 14 7 0
11 -6 8 -14z m472 -12 c3 -5 0 -13 -6 -17 -7 -4 -9 -3 -5 4 3 5 0 13 -6 15 -9
4 -10 6 -1 6 6 1 14 -3 18 -8z m-653 -39 c-7 -2 -10 -8 -7 -13 4 -5 -2 -6 -11
-2 -10 4 -15 2 -11 -4 3 -5 -1 -10 -10 -10 -13 0 -12 4 5 17 12 10 18 21 14
24 -3 4 2 4 13 0 11 -5 14 -9 7 -12z m25 -14 c-3 -8 -6 -5 -6 6 -1 11 2 17 5
13 3 -3 4 -12 1 -19z m-3 -30 c-3 -4 -9 -8 -15 -8 -5 0 -9 4 -9 8 0 5 7 9 15
9 8 0 12 -4 9 -9z m627 -15 c-12 -20 -14 -14 -5 12 4 9 9 14 11 11 3 -2 0 -13
-6 -23z m-677 -5 c-5 -7 -2 -9 8 -5 12 4 14 1 11 -14 -5 -18 -6 -19 -18 -2
-12 16 -11 33 1 33 3 0 2 -5 -2 -12z m-120 -24 c3 -8 2 -12 -4 -9 -6 3 -10 10
-10 16 0 14 7 11 14 -7z m206 10 c0 -8 -19 -13 -24 -6 -3 5 1 9 9 9 8 0 15 -2
15 -3z m620 2 c0 -3 -4 -8 -10 -11 -5 -3 -10 -1 -10 4 0 6 5 11 10 11 6 0 10
-2 10 -4z m-661 -19 c8 -10 7 -14 -2 -14 -8 0 -14 6 -14 14 0 7 1 13 2 13 2 0
8 -6 14 -13z m-198 -10 c-6 -8 -7 -18 -3 -22 4 -5 1 -5 -6 -1 -10 6 -10 11 -1
22 6 8 14 14 16 14 3 0 0 -6 -6 -13z m73 5 c2 -4 0 -14 -6 -22 -8 -12 -9 -12
-5 2 3 9 1 19 -6 22 -9 3 -9 5 0 5 6 1 14 -3 17 -7z m779 -17 c4 -8 3 -16 -1
-19 -4 -3 -9 4 -9 15 -2 23 3 25 10 4z m-831 -43 c-7 -2 -10 -8 -7 -13 4 -5
-2 -6 -11 -2 -13 5 -15 3 -9 -7 6 -9 4 -11 -5 -5 -10 6 -10 11 3 20 9 7 14 15
10 19 -4 4 1 4 12 0 11 -5 14 -9 7 -12z m25 -14 c-3 -8 -6 -5 -6 6 -1 11 2 17
5 13 3 -3 4 -12 1 -19z m93 18 c0 -3 -4 -8 -10 -11 -5 -3 -10 -1 -10 4 0 6 5
11 10 11 6 0 10 -2 10 -4z m705 -6 c3 -5 1 -10 -4 -10 -6 0 -11 5 -11 10 0 6
2 10 4 10 3 0 8 -4 11 -10z m-917 -55 c-3 -3 -9 2 -12 12 -6 14 -5 15 5 6 7
-7 10 -15 7 -18z m32 15 c0 -5 -5 -10 -11 -10 -5 0 -7 5 -4 10 3 6 8 10 11 10
2 0 4 -4 4 -10z m84 -2 c-3 -4 -9 -8 -15 -8 -5 0 -9 4 -9 8 0 5 7 9 15 9 8 0
12 -4 9 -9z m56 8 c0 -2 -7 -7 -16 -10 -8 -3 -12 -2 -9 4 6 10 25 14 25 6z
m-106 -28 c-5 -7 -2 -9 9 -5 11 4 14 2 10 -9 -4 -11 -9 -12 -19 -3 -12 10 -11
29 2 29 3 0 2 -5 -2 -12z m76 -12 c0 -2 -7 -7 -16 -10 -8 -3 -12 -2 -9 4 6 10
25 14 25 6z m-113 -21 c0 -8 -4 -15 -9 -15 -10 0 -11 14 -1 23 9 10 10 9 10
-8z m64 -8 c-10 -9 -11 -8 -5 6 3 10 9 15 12 12 3 -3 0 -11 -7 -18z m-167 1
c-5 -8 -1 -9 12 -4 14 5 16 4 7 -5 -13 -13 -37 -3 -28 12 4 5 8 9 11 9 3 0 2
-5 -2 -12z m142 -24 c-1 -8 -6 -17 -11 -21 -4 -5 -5 -2 0 6 6 11 4 13 -8 8
-10 -4 -14 -2 -11 7 6 17 32 16 30 0z m-192 -12 c3 -5 -1 -9 -9 -9 -8 0 -12 4
-9 9 3 4 7 8 9 8 2 0 6 -4 9 -8z m36 -22 c0 -5 -4 -10 -10 -10 -5 0 -10 5 -10
10 0 6 5 10 10 10 6 0 10 -4 10 -10z m120 4 c0 -8 -19 -13 -24 -6 -3 5 1 9 9
9 8 0 15 -2 15 -3z m-76 -21 c4 -10 4 -14 0 -10 -4 4 -12 -1 -19 -10 -9 -13
-14 -13 -20 -3 -6 9 -4 11 5 5 10 -6 12 -4 7 9 -4 10 -3 15 3 11 6 -3 10 -1
10 4 0 16 7 13 14 -6z m-81 -10 c-5 -12 -3 -14 7 -8 9 6 11 4 5 -4 -5 -9 -11
-9 -17 -3 -6 6 -7 15 -4 21 11 17 16 13 9 -6z m-43 3 c0 -3 -4 -8 -10 -11 -5
-3 -10 -1 -10 4 0 6 5 11 10 11 6 0 10 -2 10 -4z m172 -17 c2 -2 1 -3 -1 -2
-2 2 -10 -2 -18 -9 -7 -6 -16 -8 -20 -4 -3 3 -1 6 6 6 7 0 10 4 7 9 -4 5 1 8
9 7 8 -1 16 -4 17 -7z m-137 -18 c3 -5 2 -12 -3 -15 -5 -3 -9 1 -9 9 0 17 3
19 12 6z m51 -23 c5 -7 3 -8 -6 -3 -9 6 -12 4 -8 -7 4 -8 1 -15 -7 -15 -7 0
-10 8 -7 19 5 21 17 23 28 6z m-122 -40 c-3 -4 -9 -8 -15 -8 -5 0 -9 4 -9 8 0
5 7 9 15 9 8 0 12 -4 9 -9z m1106 -3 c7 -9 8 -15 2 -15 -5 0 -12 7 -16 15 -3
8 -4 15 -2 15 2 0 9 -7 16 -15z m-1156 -17 c-5 -8 -1 -9 12 -4 14 5 16 4 7 -5
-13 -13 -37 -3 -28 12 4 5 8 9 11 9 3 0 2 -5 -2 -12z m133 6 c-3 -3 -12 -4
-19 -1 -8 3 -5 6 6 6 11 1 17 -2 13 -5z m-70 -36 c-3 -8 -6 -5 -6 6 -1 11 2
17 5 13 3 -3 4 -12 1 -19z m-100 -24 c-3 -3 -12 -4 -19 -1 -8 3 -5 6 6 6 11 1
17 -2 13 -5z m94 -17 c-10 -9 -11 -8 -5 6 3 10 9 15 12 12 3 -3 0 -11 -7 -18z
m1109 -1 c0 -2 -7 -7 -16 -10 -8 -3 -12 -2 -9 4 6 10 25 14 25 6z m-10 -71 c7
-9 8 -15 2 -15 -5 0 -12 7 -16 15 -3 8 -4 15 -2 15 2 0 9 -7 16 -15z m-1184
-45 c0 -9 -7 -16 -16 -16 -9 0 -16 7 -16 16 0 9 7 16 16 16 9 0 16 -7 16 -16z
m1194 -44 c0 -2 -7 -7 -16 -10 -8 -3 -12 -2 -9 4 6 10 25 14 25 6z m-1196 -22
c5 -14 4 -15 -9 -4 -17 14 -19 20 -6 20 5 0 12 -7 15 -16z m1193 -121 c5 3 9
-2 9 -12 0 -9 -8 -17 -17 -17 -11 0 -15 6 -11 15 3 8 1 12 -5 8 -5 -3 -10 0
-10 8 0 11 4 12 13 4 7 -6 17 -8 21 -6z m-27 -43 c8 -5 11 -10 5 -10 -5 0 -17
5 -25 10 -8 5 -10 10 -5 10 6 0 17 -5 25 -10z m-1165 -20 c-3 -5 -12 -10 -18
-10 -7 0 -6 4 3 10 19 12 23 12 15 0z m1115 6 c0 -2 -7 -7 -16 -10 -8 -3 -12
-2 -9 4 6 10 25 14 25 6z m87 -32 c-3 -3 -12 -4 -19 -1 -8 3 -5 6 6 6 11 1 17
-2 13 -5z m-157 -34 c-8 -5 -19 -10 -25 -10 -5 0 -3 5 5 10 8 5 20 10 25 10 6
0 3 -5 -5 -10z m86 -2 c5 -7 3 -8 -6 -3 -10 6 -12 4 -6 -10 5 -15 4 -16 -9 -5
-13 11 -13 15 -3 21 17 11 16 11 24 -3z m-59 -33 c0 -22 -14 -18 -20 4 -3 13
0 18 7 15 7 -3 13 -11 13 -19z m-1073 -1 c3 -8 2 -12 -4 -9 -6 3 -10 10 -10
16 0 14 7 11 14 -7z m1166 -6 c0 -4 -7 -8 -15 -8 -8 0 -15 4 -15 8 0 5 7 9 15
9 8 0 15 -4 15 -9z m-136 -20 c-5 -7 -2 -9 9 -5 11 4 14 2 10 -9 -4 -11 -9
-12 -19 -3 -12 10 -11 29 2 29 3 0 2 -5 -2 -12z m81 -8 c-3 -4 0 -10 7 -12 7
-3 4 -7 -7 -12 -11 -4 -16 -4 -12 0 4 4 -1 13 -11 21 -16 12 -16 13 2 6 14 -5
17 -3 11 7 -5 9 -4 11 4 6 6 -4 9 -11 6 -16z m-1114 -7 c13 -16 12 -17 -3 -4
-10 7 -18 15 -18 17 0 8 8 3 21 -13z m952 -7 c3 -8 0 -17 -7 -19 -10 -4 -12 1
-9 14 6 23 9 24 16 5z m-958 -38 c11 -24 12 -28 2 -16 -8 10 -16 16 -18 13 -3
-2 -5 5 -5 15 0 27 3 25 21 -12z m919 16 c3 -8 2 -12 -4 -9 -6 3 -10 10 -10
16 0 14 7 11 14 -7z m180 -16 c-3 -4 -11 -5 -19 -1 -21 7 -19 12 4 10 11 0 18
-5 15 -9z m-54 -18 c0 -5 -4 -10 -10 -10 -5 0 -10 5 -10 10 0 6 5 10 10 10 6
0 10 -4 10 -10z m-187 -21 c-8 -8 -13 -7 -18 2 -5 8 -4 10 3 5 7 -4 12 -2 12
5 0 7 3 9 7 6 4 -4 2 -12 -4 -18z m67 -1 c0 -4 -4 -8 -9 -8 -6 0 -12 4 -15 8
-3 5 1 9 9 9 8 0 15 -4 15 -9z m75 2 c3 -5 1 -10 -4 -10 -6 0 -11 5 -11 10 0
6 2 10 4 10 3 0 8 -4 11 -10z m-98 -45 c5 -4 2 -5 -6 0 -11 6 -13 4 -8 -8 9
-23 0 -21 -13 2 -7 15 -7 19 5 17 8 -1 18 -6 22 -11z m60 -4 c-10 -12 -9 -14
6 -8 10 4 16 3 12 -2 -9 -16 -43 -9 -37 8 4 10 1 12 -8 6 -8 -5 -11 -4 -7 1 3
5 15 10 26 10 16 0 18 -3 8 -15z m-147 -15 c0 -2 -7 -7 -16 -10 -8 -3 -12 -2
-9 4 6 10 25 14 25 6z m-45 -16 c-3 -5 -12 -10 -18 -10 -7 0 -6 4 3 10 19 12
23 12 15 0z m85 0 c-8 -5 -19 -10 -25 -10 -5 0 -3 5 5 10 8 5 20 10 25 10 6 0
3 -5 -5 -10z m74 2 c2 -4 -4 -8 -14 -8 -10 0 -16 4 -14 8 3 4 9 8 14 8 5 0 11
-4 14 -8z m-203 -25 c-6 -8 -9 -16 -6 -19 3 -2 -2 -5 -10 -5 -19 0 -19 2 1 21
19 19 31 21 15 3z m81 -6 c-4 -10 -1 -12 9 -6 8 4 11 4 6 0 -11 -12 -47 -13
-54 -2 -4 6 -1 7 7 2 9 -6 12 -4 8 6 -4 10 1 15 12 15 11 0 16 -5 12 -15z m61
-12 c-8 -8 -13 -7 -18 2 -6 8 -4 10 5 4 10 -6 12 -4 6 11 -6 15 -5 17 5 7 9
-10 10 -16 2 -24z m57 11 c0 -5 -2 -10 -4 -10 -3 0 -8 5 -11 10 -3 6 -1 10 4
10 6 0 11 -4 11 -10z m-183 -22 c-3 -8 -6 -5 -6 6 -1 11 2 17 5 13 3 -3 4 -12
1 -19z m-741 -17 c-4 -5 0 -11 6 -14 7 -3 3 -4 -9 -4 -17 1 -19 4 -11 14 12
15 22 18 14 4z m679 -10 c-9 -8 -36 -10 -30 -2 2 4 11 8 20 8 8 0 13 -3 10 -6z
m165 5 c0 -3 -4 -8 -10 -11 -5 -3 -10 -1 -10 4 0 6 5 11 10 11 6 0 10 -2 10
-4z m-120 -26 c0 -5 -4 -10 -10 -10 -5 0 -10 5 -10 10 0 6 5 10 10 10 6 0 10
-4 10 -10z m-716 -36 c6 -15 4 -15 -11 -3 -10 7 -20 15 -22 16 -2 2 3 3 11 3
9 0 19 -7 22 -16z m596 2 c0 -2 -7 -7 -16 -10 -8 -3 -12 -2 -9 4 6 10 25 14
25 6z m34 -4 c2 -4 0 -14 -6 -22 -8 -12 -9 -12 -5 2 3 9 1 19 -6 22 -9 3 -9 5
0 5 6 1 14 -3 17 -7z m-71 -32 c3 -11 1 -18 -4 -14 -5 3 -9 12 -9 20 0 20 7
17 13 -6z m170 5 c4 -8 1 -17 -5 -21 -7 -5 -8 -2 -3 6 6 10 4 12 -10 6 -15 -5
-16 -4 -5 9 15 19 16 19 23 0z m-738 -23 c-3 -3 -11 0 -18 7 -9 10 -8 11 6 5
10 -3 15 -9 12 -12z m619 -6 c-3 -9 -12 -12 -22 -9 -15 6 -9 11 25 22 1 1 0
-5 -3 -13z m-91 -15 c3 -13 1 -18 -9 -14 -7 2 -10 11 -7 19 7 19 10 18 16 -5z
m114 -20 c0 -11 -5 -17 -9 -15 -4 3 -8 0 -8 -7 0 -7 -3 -9 -6 -6 -4 4 -2 13 4
20 7 8 9 17 5 20 -3 4 -1 7 5 7 6 0 10 -9 9 -19z m-637 -23 c9 -20 9 -21 -2
-7 -7 9 -20 14 -28 12 -13 -4 -13 -3 0 6 19 14 18 14 30 -11z m480 10 c0 -6
-3 -8 -7 -5 -3 4 -13 1 -22 -6 -14 -11 -14 -10 -2 6 15 20 31 22 31 5z m80 8
c0 -3 -4 -8 -10 -11 -5 -3 -10 -1 -10 4 0 6 5 11 10 11 6 0 10 -2 10 -4z m-37
-37 c-4 -15 -8 -17 -14 -8 -6 11 4 28 18 29 0 0 -1 -9 -4 -21z m-550 -4 c-3
-9 -8 -14 -10 -11 -3 3 -2 9 2 15 9 16 15 13 8 -4z m612 -5 c3 -6 -1 -7 -9 -4
-18 7 -21 14 -7 14 6 0 13 -4 16 -10z m-150 -21 c-4 -5 -12 -9 -18 -8 -9 0 -8
2 1 6 6 2 9 10 6 15 -4 7 -2 8 5 4 6 -4 9 -12 6 -17z m118 -13 c-10 -12 -18
-22 -19 -24 -1 -1 -4 6 -7 17 -3 15 -1 18 11 14 9 -4 13 -2 9 4 -3 5 0 10 8
10 12 0 12 -4 -2 -21z m-556 0 c0 -8 -6 -12 -15 -9 -11 5 -11 7 0 14 7 5 13 9
14 9 0 0 1 -6 1 -14z m473 -6 c-18 -12 -30 -13 -30 -2 0 4 10 9 22 9 18 2 20
0 8 -7z m101 -13 c-10 -9 -11 -8 -5 6 3 10 9 15 12 12 3 -3 0 -11 -7 -18z
m-166 -5 c-3 -3 -11 0 -18 7 -9 10 -8 11 6 5 10 -3 15 -9 12 -12z m-404 -10
c-7 -2 -18 1 -23 6 -8 8 -4 9 13 5 13 -4 18 -8 10 -11z m359 4 c0 -3 -4 -8
-10 -11 -5 -3 -10 -1 -10 4 0 6 5 11 10 11 6 0 10 -2 10 -4z m-25 -26 c4 -6
-1 -7 -11 -3 -12 4 -15 3 -10 -5 4 -7 2 -12 -3 -12 -12 0 -14 13 -4 23 9 10
21 9 28 -3z m140 1 c3 -5 2 -12 -3 -15 -5 -3 -9 1 -9 9 0 17 3 19 12 6z m-478
-24 c0 -8 -6 -14 -14 -14 -9 0 -10 4 -2 14 6 7 12 13 14 13 1 0 2 -6 2 -13z
m370 -9 c-3 -8 -6 -5 -6 6 -1 11 2 17 5 13 3 -3 4 -12 1 -19z m-25 -20 c-8 -8
-9 -4 -5 13 4 13 8 18 11 10 2 -7 -1 -18 -6 -23z m101 15 c-5 -12 -3 -14 7 -8
9 6 11 4 5 -4 -5 -9 -11 -9 -17 -3 -6 6 -7 15 -4 21 11 17 16 13 9 -6z m-123
-32 c0 -6 -4 -12 -8 -15 -5 -3 -9 1 -9 9 0 8 4 15 9 15 4 0 8 -4 8 -9z m84 1
c2 -4 -4 -8 -14 -8 -10 0 -16 4 -14 8 3 4 9 8 14 8 5 0 11 -4 14 -8z m-173
-39 c-12 -20 -14 -14 -5 12 4 9 9 14 11 11 3 -2 0 -13 -6 -23z m146 -5 c-3 -8
-6 -5 -6 6 -1 11 2 17 5 13 3 -3 4 -12 1 -19z m-184 -42 c3 -8 0 -17 -7 -19
-10 -4 -12 1 -9 14 6 23 9 24 16 5z m-193 -30 c0 -2 -7 -7 -16 -10 -8 -3 -12
-2 -9 4 6 10 25 14 25 6z m160 -6 c0 -5 -5 -10 -11 -10 -5 0 -7 5 -4 10 3 6 8
10 11 10 2 0 4 -4 4 -10z m122 -8 c-7 -2 -9 -9 -5 -15 3 -7 2 -8 -2 -4 -16 14
-14 36 3 29 10 -4 12 -7 4 -10z m-278 -10 c3 -5 -1 -9 -9 -9 -8 0 -12 4 -9 9
3 4 7 8 9 8 2 0 6 -4 9 -8z m198 -14 c-2 -10 -9 -18 -15 -18 -6 0 -7 3 -4 7 4
3 3 11 -3 17 -6 8 -3 12 9 12 12 0 17 -6 13 -18z m-212 -12 c0 -2 -7 -7 -16
-10 -8 -3 -12 -2 -9 4 6 10 25 14 25 6z m44 -18 c-5 -7 -2 -9 8 -6 8 4 15 0
15 -8 0 -7 -5 -10 -10 -7 -6 4 -8 0 -5 -9 4 -8 1 -15 -6 -15 -6 0 -11 12 -10
26 3 31 3 31 10 31 3 0 2 -5 -2 -12z m120 0 c-5 -8 -1 -9 12 -4 15 6 17 5 7
-5 -7 -7 -13 -17 -13 -22 0 -4 6 -5 13 -1 6 4 8 3 4 -1 -17 -19 -33 -12 -31
14 3 32 3 31 10 31 3 0 2 -5 -2 -12z m93 6 c-3 -3 -12 -4 -19 -1 -8 3 -5 6 6
6 11 1 17 -2 13 -5z m-159 -58 c-10 -7 -14 -17 -10 -21 4 -5 1 -5 -5 -1 -18
10 -16 24 5 29 27 7 28 7 10 -7z m47 -14 c-3 -3 -11 0 -18 7 -9 10 -8 11 6 5
10 -3 15 -9 12 -12z m-90 -31 c0 -16 -3 -27 -7 -24 -13 7 -7 53 6 53 1 0 1
-13 1 -29z"/>
<path d="M2024 2089 c-3 -6 -1 -16 5 -22 8 -8 11 -5 11 11 0 24 -5 28 -16 11z"/>
</g>
</svg>
