<svg id="Layer_1" data-name="Layer 1" xmlns="http://www.w3.org/2000/svg" viewBox="0 0 512 512"><title>tumblr</title><path d="M271,512H241c-1.44-.3-2.88-.65-4.34-.89-15.87-2.71-32.06-4.21-47.57-8.29C93.42,477.65,20.54,397.38,3.9,299.6,2.29,290.12,1.29,280.54,0,271V241c.3-1.45.64-2.89.88-4.35,2.4-14.75,3.78-29.76,7.33-44.23C31.87,96,114.35,19.92,211.91,4,221.56,2.38,231.3,1.31,241,0h30a31.56,31.56,0,0,0,4.35.86c19,1.26,37.78,4.34,55.76,10.49C428.31,44.63,487.66,111.47,508,212.4c1.9,9.42,2.67,19.06,4,28.6v30c-.3,1.45-.65,2.9-.9,4.36-2.7,15.87-4.21,32.06-8.29,47.57C477.63,418.58,397.07,491.7,299.58,508.09,290.1,509.68,280.53,510.71,271,512Zm-4-406.15H235.87c-10.18,0-10.14,0-11.94,10.13-4.83,27.11-18.11,48.36-42.84,61.63-4.84,2.6-11.72,4-14,8-2.46,4.26-.6,11-.61,16.68,0,7.45,0,14.9,0,22.75H198.6c0,2.37,0,4.32,0,6.28.1,35.32.11,70.64.35,106,.12,18.11,7.81,32.62,22.77,42.7,6.68,4.5,14,8.64,21.67,11,34.3,10.45,67.46,5.74,99.48-9.28a5.54,5.54,0,0,0,2.56-4.12c.18-13.49.1-27,.05-40.48a1.59,1.59,0,0,0-.35-1c-8.68,3.55-16.91,7.67-25.6,10.28-12.71,3.82-25.57,4.15-37.94-2.08-8.13-4.09-12.69-10.58-13.47-19.6-.51-5.81-1-11.63-1-17.45-.12-26-.07-52-.07-78,0-1.28.17-2.56.31-4.48h68.19V178.91H267Z"/></svg>