<svg id="Layer_1" data-name="Layer 1" xmlns="http://www.w3.org/2000/svg" viewBox="0 0 256 256"><title>Artboard 1</title><path d="M0,133.75v-11.5c.16-1.72.34-3.44.48-5.16A122.65,122.65,0,0,1,9.06,80.67Q26.39,38,66.64,15.68A123.9,123.9,0,0,1,114.22.76c2.67-.28,5.35-.51,8-.76h11.5c.55.08,1.1.2,1.66.23A114.8,114.8,0,0,1,155.55,3q47.85,11,76.66,50.75a124.55,124.55,0,0,1,23,60.62c.28,2.63.5,5.27.75,7.9v11.5a13.11,13.11,0,0,0-.22,1.53,117,117,0,0,1-3,21.41q-12,49.82-54.59,78.32a123.77,123.77,0,0,1-56.52,20.24c-2.63.28-5.27.5-7.9.75h-11.5a13.42,13.42,0,0,0-1.53-.22,122.63,122.63,0,0,1-37-7.68q-42.84-16.15-66.24-55.58A124,124,0,0,1,.75,141.64C.47,139,.25,136.38,0,133.75ZM94,82.49c.16.15.23.26.31.28,5.91,1.25,8.91,5.06,9.66,10.9a101.35,101.35,0,0,1,.39,23,34.4,34.4,0,0,1-1.83,8.2c-1.4,3.93-4.8,4.91-8.21,2.47A24.44,24.44,0,0,1,89.8,123c-5.2-6.34-9.26-13.45-13-20.7C74,96.94,71.65,91.41,69.16,85.94c-1-2.14-2.41-3.57-4.88-3.57-8.72,0-17.45-.07-26.17,0-3.81,0-5,2.13-3.52,5.58A371,371,0,0,0,53.76,125.9c6.6,11.38,13.7,22.43,22.72,32.09a66.19,66.19,0,0,0,33.9,19.86c6.66,1.56,13.4,1.07,20.12,1.14,3.47,0,5.75-2.25,5.94-5.75.09-1.66.12-3.32.29-5,.36-3.6,1.1-7.1,3.21-10.14,2.62-3.78,6.05-4.47,9.86-2a16,16,0,0,1,2.46,2c1.75,1.76,3.45,3.57,5.14,5.39,3,3.25,5.82,6.66,9,9.73,3.57,3.47,7.81,5.77,13,5.78,8.06,0,16.13.1,24.19-.06a13.1,13.1,0,0,0,5.31-1.51c2.54-1.27,3.17-3.25,1.95-5.84a23.35,23.35,0,0,0-3.44-5.62c-5.7-6.44-11.58-12.73-17.4-19.07-2.12-2.32-4.38-4.52-6.37-6.95a7.29,7.29,0,0,1-.87-8.38,40.53,40.53,0,0,1,3.19-5.4c4.4-6,9-11.92,13.33-18,4.08-5.63,8.06-11.35,10.75-17.82a24,24,0,0,0,1.26-4.76,2.21,2.21,0,0,0-2-2.73,24.42,24.42,0,0,0-4.27-.42c-9.44,0-18.89,0-28.33,0-3.91,0-4.67.53-6.12,4.22a135.46,135.46,0,0,1-13.73,26.92,93.33,93.33,0,0,1-9.73,12.29c-4.09,4.22-8.09,2.93-9.91-2.69a8.59,8.59,0,0,1-.45-1.93c-.17-2.74-.43-5.5-.41-8.25.09-9,.38-18,.39-27,0-4.62-1.59-6.32-6-7.41a12,12,0,0,0-2.43-.48c-6.5-.19-13-.51-19.51-.41a55.53,55.53,0,0,0-9.79,1.4A7.87,7.87,0,0,0,94,82.49Z"/></svg>