<svg id="Layer_1" data-name="Layer 1" xmlns="http://www.w3.org/2000/svg" viewBox="0 0 512 512"><title>goodreads-512</title><path d="M240,0h32c1.28.28,2.56.61,3.85.83,15.88,2.73,32.07,4.29,47.59,8.36,94.8,24.88,168.8,106.4,184.66,202.69,1.54,9.33,2.61,18.74,3.9,28.12v32c-.29,1.45-.62,2.9-.88,4.36-2.72,15.71-4.28,31.73-8.33,47.09-25,94.9-106.35,168.74-202.7,184.65-9.32,1.54-18.72,2.61-28.09,3.9H240c-1.28-.28-2.55-.64-3.84-.84-13.3-2.07-26.8-3.28-39.87-6.31C97.83,482,20.52,399.61,3.89,300.11,2.33,290.79,1.28,281.37,0,272V240c.29-1.45.64-2.89.86-4.35,1.73-11.68,2.85-23.48,5.24-35C26.73,101.3,111.54,20.14,211.39,4,220.89,2.41,230.46,1.31,240,0ZM177.8,338.27C176,363.94,191.75,387.5,217.19,397c23,8.6,46.74,8.78,70.35,3.29,24.58-5.72,41.45-20.74,50.53-44.6,5.51-14.5,6.5-29.56,6.54-44.71.17-64.16.07-128.31.06-192.47,0-1.74-.17-3.49-.25-5.13h-15v42.47a15.89,15.89,0,0,1-3.26-5.18,67,67,0,0,0-30.9-32.8c-44.42-23-96.53-5.42-116.88,40.85C162,196,163.15,234,180.19,271c8.28,18,21.35,32.07,40.54,38.54a112.23,112.23,0,0,0,30.69,5.94c33,1.39,58.39-12,74.34-41.63l3.2-6a21,21,0,0,1,.57,3.17c-.19,20.16.62,40.39-.92,60.45-1.46,19.13-9.94,35.28-26.55,46.49s-35.35,13.54-54.55,11.74c-26.3-2.48-50.49-15.78-54.78-48-.16-1.24-1.64-3.2-2.64-3.29C186,338.05,181.87,338.27,177.8,338.27Z" transform="translate(0)"/><path d="M330.2,211.94c-1.07,20.19-5.26,39.09-15.36,56.58C301.27,292,280.62,302.58,254,302.21c-23.71-.34-42.24-10.19-55.25-30.29-13.19-20.4-17.39-42.94-16.27-66.75a106.73,106.73,0,0,1,16.37-52.77c15.58-24.73,38.65-33,66.48-29.84,33.77,3.87,51.07,26,59.49,56.53C327.73,189.73,328.46,201,330.2,211.94Z" transform="translate(0)"/></svg>